<svg xmlns="http://www.w3.org/2000/svg" viewBox="0 0 512 512" width="512" height="512">
  <defs>
    <linearGradient id="g" x1="0" y1="0" x2="1" y2="1">
      <stop offset="0" stop-color="#16c47f"/>
      <stop offset="1" stop-color="#0e8f5c"/>
    </linearGradient>
  </defs>
  <rect width="512" height="512" rx="112" fill="url(#g)"/>
  <!-- balón -->
  <circle cx="256" cy="256" r="150" fill="#ffffff"/>
  <circle cx="256" cy="256" r="150" fill="none" stroke="#0a0a0a" stroke-width="6" opacity="0.85"/>
  <!-- pentágono central -->
  <polygon points="256,210 299.7,241.8 283,293.2 229,293.2 212.3,241.8" fill="#0a0a0a"/>
  <!-- costuras hacia el borde -->
  <g stroke="#0a0a0a" stroke-width="11" stroke-linecap="round">
    <line x1="256" y1="210" x2="256" y2="112"/>
    <line x1="299.7" y1="241.8" x2="392" y2="210"/>
    <line x1="283" y1="293.2" x2="338" y2="372"/>
    <line x1="229" y1="293.2" x2="174" y2="372"/>
    <line x1="212.3" y1="241.8" x2="120" y2="210"/>
  </g>
  <!-- pentágonos del borde (simplificados) -->
  <g fill="#0a0a0a">
    <circle cx="256" cy="118" r="15"/>
    <circle cx="392" cy="206" r="15"/>
    <circle cx="340" cy="378" r="15"/>
    <circle cx="172" cy="378" r="15"/>
    <circle cx="120" cy="206" r="15"/>
  </g>
</svg>
